<?xml version="1.0" standalone="no"?>
<!DOCTYPE svg PUBLIC "-//W3C//DTD SVG 20010904//EN"
 "http://www.w3.org/TR/2001/REC-SVG-20010904/DTD/svg10.dtd">
<svg version="1.0" xmlns="http://www.w3.org/2000/svg"
 width="331.000000pt" height="331.000000pt" viewBox="0 0 331.000000 331.000000"
 preserveAspectRatio="xMidYMid meet">
<metadata>
Created by potrace 1.16, written by Peter Selinger 2001-2019
</metadata>
<g transform="translate(0.000000,331.000000) scale(0.100000,-0.100000)"
fill="#fff" stroke="none">
<path d="M1369 3290 c-629 -111 -1133 -568 -1313 -1193 -38 -130 -51 -250 -50
-452 0 -147 4 -199 23 -284 51 -238 143 -455 279 -661 236 -355 628 -605 1069
-680 158 -27 398 -27 556 0 694 118 1239 663 1357 1357 27 158 27 398 0 556
-118 694 -663 1239 -1357 1357 -154 27 -413 26 -564 0z m1081 -626 l0 -107
-37 7 c-85 15 -212 18 -275 7 -130 -22 -207 -65 -350 -193 -48 -43 -89 -78
-92 -78 -3 0 -6 36 -6 81 l0 80 57 60 c98 103 247 187 388 219 49 11 186 26
273 29 l42 1 0 -106z m-1265 60 c55 -14 124 -36 153 -49 66 -30 156 -99 216
-166 l46 -51 0 -80 0 -81 -80 77 c-44 42 -104 91 -133 110 -73 47 -182 84
-269 92 -67 6 -201 -6 -242 -22 -16 -6 -17 2 -14 95 l3 101 110 0 c87 0 133
-6 210 -26z m-418 -414 c3 -355 6 -376 64 -405 48 -25 86 -22 167 14 120 53
207 57 307 14 66 -28 98 -54 231 -183 l127 -123 -42 6 c-62 8 -117 39 -212
120 -138 118 -230 132 -381 59 -113 -55 -146 -55 -217 -2 -70 52 -86 53 -77 1
11 -72 23 -91 72 -113 63 -27 115 -19 224 33 154 75 239 64 374 -48 150 -123
204 -150 283 -139 63 8 128 45 223 128 109 94 147 112 230 112 59 0 74 -5 159
-49 81 -43 101 -50 151 -50 68 0 103 17 132 62 22 38 27 106 7 129 -9 11 -16
7 -39 -25 -15 -21 -41 -48 -56 -60 -40 -31 -96 -24 -211 28 -158 71 -243 53
-391 -84 -88 -83 -126 -105 -177 -105 l-36 0 60 74 c143 174 268 258 397 264
64 4 80 0 173 -37 113 -46 156 -50 219 -21 l44 20 -8 350 -7 350 34 0 c67 0
63 27 73 -484 10 -511 9 -518 -47 -560 -25 -18 -42 -21 -125 -21 -93 1 -101 3
-192 44 -167 76 -245 65 -378 -54 -87 -78 -129 -100 -202 -109 -113 -14 -208
24 -320 126 -70 64 -109 80 -195 82 -61 1 -78 -3 -135 -32 -125 -64 -176 -73
-281 -51 -34 7 -64 22 -88 44 l-36 33 0 477 c0 460 1 477 19 491 11 8 34 14
50 14 l31 0 2 -320z m428 189 c102 -28 206 -97 328 -217 75 -74 87 -101 87
-201 l0 -63 -46 51 c-50 55 -130 100 -229 127 -90 24 -282 29 -384 10 -46 -9
-87 -16 -93 -16 -5 0 -8 26 -6 57 l3 58 90 18 c57 11 111 15 147 12 49 -5 201
-40 263 -60 14 -5 11 2 -12 22 -17 15 -64 41 -105 57 -62 25 -88 29 -173 30
-55 1 -126 -3 -157 -8 l-58 -8 0 55 c0 45 4 58 19 67 55 29 235 34 326 9z
m1245 1 c14 -3 25 -12 24 -18 -1 -7 -2 -31 -2 -55 l-2 -43 -152 0 c-136 1
-158 -1 -198 -21 -49 -23 -128 -80 -95 -69 57 20 186 46 232 46 69 0 205 -27
215 -42 11 -19 10 -86 -2 -93 -6 -4 -54 1 -106 10 -94 17 -123 17 -372 0 -40
-2 -87 -12 -105 -21 -50 -26 -124 -91 -149 -132 l-23 -37 -7 50 c-14 92 5 132
106 228 132 125 243 189 356 206 65 9 232 4 280 -9z m-97 -350 c129 -32 127
-31 127 -95 0 -53 -1 -55 -28 -55 -15 0 -52 9 -82 20 -94 34 -164 43 -259 30
-147 -18 -201 -54 -345 -225 -56 -65 -64 -62 -65 25 -1 37 7 57 45 115 59 91
129 162 174 177 90 29 328 34 433 8z m-1078 -6 c115 -20 181 -50 250 -115 68
-65 105 -135 105 -203 l0 -51 -107 103 c-81 78 -125 112 -182 140 -70 34 -81
37 -165 37 -85 0 -96 -3 -161 -36 -78 -40 -115 -52 -131 -41 -20 13 -34 50
-34 92 0 47 5 50 117 74 90 19 198 19 308 0z m-175 -931 c3 -3 6 -105 8 -228
3 -211 4 -223 23 -228 14 -4 19 -14 19 -42 l0 -38 -52 6 c-28 4 -56 11 -62 17
-12 12 -23 488 -12 516 5 12 14 14 38 9 18 -4 35 -9 38 -12z m910 -171 c0 -99
3 -220 6 -270 l7 -92 -45 0 c-33 0 -48 5 -52 16 -3 9 -6 130 -6 270 l0 254 45
0 45 0 0 -178z m-1182 143 c92 -28 142 -97 142 -200 0 -48 -26 -93 -75 -131
-33 -25 -47 -28 -126 -32 l-89 -4 0 -64 c0 -34 -4 -65 -8 -68 -5 -3 -25 -3
-45 1 l-37 6 0 253 0 254 93 0 c55 0 115 -6 145 -15z m1052 -21 c0 -67 -9 -73
-100 -67 l-80 6 0 -62 0 -61 75 0 75 0 0 -49 c0 -58 -10 -64 -93 -60 l-52 3
-3 -74 c-4 -119 -4 -120 -64 -120 l-51 0 6 197 c4 108 7 225 7 260 l0 63 140
0 140 0 0 -36z m-606 -178 c22 -77 62 -166 74 -166 9 0 72 128 72 146 0 5 5
26 11 47 10 37 10 37 64 37 l54 0 -20 -72 c-23 -84 -59 -188 -70 -203 -4 -5
-16 -38 -27 -72 -11 -34 -39 -89 -62 -123 -39 -58 -42 -60 -84 -60 -69 0 -106
17 -106 48 0 45 15 57 67 57 44 0 48 2 67 39 15 28 18 40 9 43 -35 12 -65 52
-98 130 -40 97 -68 191 -59 204 3 5 24 9 47 9 l42 0 19 -64z m1064 35 c70 -49
94 -158 54 -237 -54 -105 -155 -134 -248 -71 -122 81 -126 227 -9 305 46 31
55 34 110 30 43 -3 70 -10 93 -27z m169 -23 c6 -29 21 -75 33 -103 l22 -50 24
85 c13 47 24 93 24 103 0 14 9 17 45 17 29 0 45 -4 45 -12 0 -25 52 -178 61
-178 8 0 39 94 53 163 6 25 10 27 56 27 28 0 50 -3 50 -7 0 -12 -67 -198 -102
-285 -47 -115 -75 -105 -122 39 -15 46 -31 85 -36 88 -4 3 -18 -35 -30 -83
-11 -48 -27 -94 -33 -103 -17 -22 -44 -30 -56 -16 -5 7 -37 82 -71 167 -34 85
-66 159 -71 165 -23 23 -8 35 44 35 l53 0 11 -52z"/>
<path d="M680 1010 l0 -90 44 0 c83 0 125 29 126 86 0 45 -28 74 -80 85 -94
17 -90 21 -90 -81z"/>
<path d="M2160 935 c-36 -38 -32 -100 9 -137 54 -48 118 -31 141 38 23 69 -14
124 -85 124 -31 0 -47 -6 -65 -25z"/>
</g>
</svg>
